Patient4_TMGait_0pt3_01_left_11_EMG.mot
version=1
nRows=13
nColumns=33
inDegrees=no
endheader
time	1LAddLong	2LGlutMax	3LGlutMed	4LIliopsoas	5LSemiMemb	6LBicFemLong	7LRecFem	8LVastMed	9LVastLat	10LGasMed	11LTibAnt	12lTibPost	13LPeroneusLong	14LSol	15LExtDigLong	16LFlexDigLong	17RAddLong	18RGlutMax	19RGlutMed	20RIliopsoas	21RSemiMemb	22RBicFemLong	23RRecFem	24RVastMed	25RVastLat	26RGasMed	27RTibAnt	28RTibPost	29RPeroneusLong	30RSol	31RExtDigLong	32RFlexDigLong
21.635	0.019073	-0.099487	0.070343	0.005188	0.009918	-0.11581	-0.14038	-0.024719	0.066071	-0.13428	0.26138	0.00351	-0.15793	0.15442	0.11765	-0.003204	-0.022583	-0.012054	0.28717	0.022583	-0.026703	-0.15778	0.1059	-0.083923	-0.16754	0.00473	0.45212	-0.022125	-0.48675	-0.005646	-0.002289	-0.011597
21.636	0.014648	-0.077362	0.076752	0.010529	0.004578	-0.11444	-0.002594	-0.03006	0.084991	-0.16052	0.30548	-0.000763	0.18539	0.38895	1.3957	-0.006561	-0.028992	-0.025177	0.26566	-0.002747	-0.010223	-0.10681	0.070496	-0.14771	-0.16602	0.001221	0.22751	-0.018616	-0.48508	0.12039	-0.002441	-0.011444
21.637	0.000153	-0.075226	0.097198	-0.006866	0.007782	0.023499	0.1239	0.000153	0.10834	-0.20264	0.46616	0.005951	0.20126	0.39261	-0.24277	0.00885	-0.036926	0.007019	0.039825	-0.000458	0.01709	-0.056305	-0.012512	-0.11871	-0.095825	-0.006104	-0.009155	-0.018158	-0.28717	0.13229	-0.002441	-0.010071
21.638	0.006561	-0.088654	0.03418	0.01236	0.001526	0.071869	0.10056	0.028687	0.041962	-0.2005	-0.040894	-0.000458	0.22583	0.31281	-0.26245	0.015869	-0.038757	0.007477	0.042267	0.015259	-0.042877	-0.04364	-0.050659	-0.18845	-0.02243	0.005646	0.096283	-0.021057	-0.043182	0.061951	-0.001984	-0.015564
21.639	0.013123	-0.080414	0.011139	0.012054	0.011597	0.075989	0.072021	0.018921	0.018311	-0.17578	-0.31479	0.003662	0.1181	0.25559	-0.83252	-0.006256	-0.027466	0.00885	0.13138	0.037689	-0.053558	-0.020447	-0.18875	-0.27344	0.015411	0.003967	0.22446	-0.018921	0.19089	-0.002441	-0.000763	-0.019379
21.64	0.010986	-0.08316	0.031586	0.007324	0.010223	-0.009613	0.02655	0.006866	0.012054	-0.1059	-0.2356	0.000763	-0.14832	0.14236	-0.94421	-0.012817	-0.020752	0.014191	0.11581	0.037537	-0.016327	0.001984	-0.37033	-0.28595	0.072937	0.001984	0.30945	-0.020294	0.20218	0.068817	-0.002289	-0.012512
21.641	0.00946	-0.085297	0.042877	-0.003662	0.011292	-0.14297	0.012054	-0.001984	0.01297	-0.086365	-0.1326	-0.001831	0.002899	-0.030212	-0.78445	-0.00946	-0.030365	0.007935	0.010529	-0.05249	0.18356	0.075989	-0.50766	-0.044861	0.28671	-0.00824	0.34927	-0.019684	0.13046	0.081482	-0.007172	-0.014954
21.642	0.008698	-0.065002	0.007782	-0.013275	0.004578	-0.12405	0.010529	-0.00946	0.01236	-0.089264	-0.014801	-0.003052	0.030518	-0.010529	-0.35751	-0.0177	-0.020294	0.053253	-0.077667	-0.094147	0.18082	0.099792	-0.51193	0.14679	0.24216	-0.002899	-0.057373	-0.020905	0.006104	0.045013	-0.002899	0.003662
21.643	0.002594	-0.085297	0.049286	0.007629	-0.002136	0.11871	0.063171	-0.01358	0.032806	-0.097961	0.1207	0.003357	0.045319	0.18433	0.14572	-0.020599	-0.000916	0.045624	0.17441	-0.032349	0.12116	0.007172	-0.28809	0.09964	0.12268	0.002441	-0.001831	-0.024872	-0.044861	0.005951	-0.000458	-0.002899
21.644	-0.005188	-0.051727	0.096588	0.005646	-0.004578	0.215	0.10468	-0.003357	0.11581	-0.067902	-0.16144	0.002136	0.066528	0.2005	0.094452	-0.007477	0.033264	0.046234	0.24384	0.011902	0.11612	-0.074158	-0.037231	0.010071	0.082703	-0.005035	-0.005798	-0.020599	-0.086823	0.006866	-0.00351	-0.012817
21.645	-0.009308	-0.082245	0.061188	0.001068	-0.003052	0.17517	0.11871	0.001526	0.1535	-0.023956	-0.13596	-0.000305	0.12451	-0.025024	0.37323	-0.009308	0.075226	0.039978	0.31158	-0.014343	0.15137	-0.15823	0.03479	-0.036774	0.030212	-0.005188	-0.33539	-0.019226	-0.079803	0.001678	-0.00351	-0.018768
21.646	0.005951	-0.092773	0.001831	0.023346	0.002289	0.10712	0.10773	0.010071	0.14053	-0.026093	-0.017548	-0.001984	0.007782	-0.055847	0.31693	0.003204	0.10925	0.038757	0.053253	0.009155	0.14908	-0.168	0.051727	-0.11078	-0.006409	-0.010834	-0.091553	-0.013275	-0.12253	-0.032196	-0.000305	-0.009918
21.647	0.003815	-0.073395	0.016632	0.021973	0.003815	0.037689	0.10666	0.006256	0.1326	-0.021362	0.048523	0.008392	0.019379	0.12833	0.24658	0.00824	0.078278	0.024261	-0.26047	0.018005	0.10269	-0.08606	-0.036621	-0.16159	0.004272	-0.001526	0.31067	-0.017242	-0.10971	0.022736	0.002441	-0.009613
